<svg width="159" height="170" viewBox="0 0 159 170" fill="none" xmlns="http://www.w3.org/2000/svg">
<path id="Vector" fill-rule="evenodd" clip-rule="evenodd" d="M73.4016 0.47878C66.0567 1.2388 58.2723 3.63449 52.9017 6.78748C47.2404 10.1115 45.9407 11.1413 40.6526 16.4924C38.1083 19.0672 35.4918 22.4303 33.9349 25.1278C31.7805 28.86 31.0309 29.6993 29.1106 30.5277C25.3885 32.1341 14.5227 38.5031 10.5822 41.3879C7.20258 43.8623 6.89465 44.2548 6.66816 46.3785C6.37749 49.102 6.64659 68.7062 7.00143 70.6697C7.13679 71.4162 7.4075 73.4927 7.6038 75.2841C9.62607 93.7651 14.5556 108.857 22.6749 121.428C24.0247 123.518 25.1313 125.49 25.1329 125.811C25.135 126.132 23.6272 127.017 21.7824 127.779C19.9375 128.541 18.2091 129.513 17.9417 129.94C17.4062 130.795 18.674 133.945 24.4593 146.129C26.3732 150.16 28.1517 154.007 28.4117 154.679C29.0146 156.235 30.6631 156.259 34.4186 154.769C37.8204 153.419 46.8704 150.472 47.613 150.472C47.901 150.472 49.5749 151.596 51.3319 152.969C57.7433 157.982 64.0209 161.894 72.5927 166.22C79.0936 169.501 79.8502 169.718 81.9351 168.892C88.9774 166.103 101.466 158.725 108.326 153.301L111.433 150.844L114.311 151.539C115.894 151.922 119.955 153.27 123.337 154.535C127.33 156.03 129.787 156.682 130.344 156.395C131.471 155.817 141.723 132.742 141.512 131.258C141.399 130.462 140.337 129.619 138.017 128.485C136.185 127.59 134.516 126.683 134.309 126.471C134.102 126.259 135.062 124.259 136.444 122.028C145.645 107.167 150.258 90.5279 151.271 68.552C151.797 57.1398 151.45 46.2949 150.511 44.8215C149.413 43.0979 139.136 36.3978 131.872 32.6699L125.457 29.3774L122.376 24.6441C112.676 9.74341 97.0606 0.973878 79.2748 0.439151C76.9344 0.368578 74.2914 0.386492 73.4016 0.47878ZM90.1191 3.3332C99.1929 5.59154 108.737 11.0088 114.717 17.2958C118.097 20.8489 121.129 24.8623 122.722 27.8937C123.941 30.2118 124.571 30.6846 130.542 33.7622C137.361 37.2773 146.585 43.2347 148.672 45.4708C149.875 46.7601 149.902 47.0495 149.914 58.865C149.934 79.0989 147.902 92.263 142.733 105.391C139.521 113.547 132.796 125.5 131.418 125.5C131.167 125.5 129.373 124.898 127.431 124.161C117.314 120.328 102.546 117.458 88.0607 116.511C82.1589 116.125 81.7603 116.022 81.7603 114.877C81.7603 114.126 82.2284 114.04 84.8612 114.305C86.5669 114.476 90.2674 114.768 93.0851 114.952C95.9028 115.137 99.3509 115.502 100.748 115.762C102.144 116.022 104.439 116.392 105.848 116.584C107.257 116.776 112.666 118.024 117.869 119.358C123.072 120.69 127.851 121.909 128.49 122.065C129.455 122.301 130.12 121.649 132.425 118.212C142.358 103.393 146.584 87.2653 147.38 61.1402C147.562 55.1523 147.554 49.4115 147.362 48.3827C147.056 46.7384 146.378 46.1 141.755 43.1028C138.863 41.2283 133.266 38.0758 129.318 36.0976C122.342 32.6026 122.101 32.4229 120.76 29.7346C112.977 14.1314 95.0793 3.62526 77.1765 4.15184C59.1082 4.68277 44.4723 13.7487 35.9582 29.683C34.3588 32.6764 33.9268 33.0716 30.6211 34.5613C27.5715 35.9353 24.5116 37.5509 18.3957 41.0171C15.2615 42.7934 11.1738 45.847 10.8729 46.638C10.6836 47.1336 10.5752 50.9728 10.6313 55.1686C10.9187 76.5463 14.403 94.6809 20.644 107.284C22.5233 111.078 27.3789 119.076 29.453 121.792C29.6056 121.992 31.7907 121.552 34.3091 120.814C44.9258 117.705 59.7515 115.165 72.1882 114.325C76.7435 114.017 77.4462 114.083 77.4462 114.817C77.4462 116.042 77.2278 116.097 70.7052 116.512C67.4426 116.72 63.8025 117.006 62.6161 117.149C50.6324 118.587 42.8275 120.171 34.4601 122.864C30.8012 124.041 27.5504 124.845 27.236 124.65C26.9222 124.454 25.7886 122.917 24.7182 121.233C13.4959 103.585 8.57934 85.2854 8.14469 59.5409C8.04384 53.5693 8.09399 47.8752 8.25632 46.8866C8.50977 45.3416 9.34457 44.524 14.2115 41.0535C17.3247 38.8331 22.8636 35.4923 26.5204 33.6286C31.2547 31.2161 33.346 29.8481 33.7855 28.8763C35.1801 25.7912 39.4274 20.0118 42.7806 16.6362C55.0582 4.2767 73.3062 -0.851247 90.1191 3.3332ZM89.9228 12.0169C92.8467 12.9344 93.5462 13.3768 93.7478 14.4371C94.2494 17.0798 94.2316 41.3547 93.7279 41.3547C91.5471 41.3547 89.9055 40.5681 89.61 39.382C89.0874 37.2876 85.6739 33.8973 83.0837 32.9017C77.8193 30.8779 71.5179 33.2361 69.2638 38.0736C68.4052 39.9161 67.6681 40.7869 66.9303 40.8298C66.3371 40.8645 65.3017 40.9954 64.6292 41.1219L63.4073 41.3509L63.5507 27.1022L63.6947 12.8541L68.2785 11.6283C72.2174 10.5751 73.8109 10.4372 79.6032 10.6484C84.3321 10.8205 87.4125 11.2292 89.9228 12.0169ZM48.8647 33.9315V44.4236L43.5679 46.689C40.6542 47.9354 38.1482 48.9549 37.9989 48.9549C37.1991 48.9549 38.9642 39.8505 40.5027 36.0384C42.5239 31.031 47.4022 23.44 48.5993 23.44C48.7449 23.44 48.8647 28.1614 48.8647 33.9315ZM115.626 33.1911C117.634 37.1345 120.591 47.5038 119.904 48.1955C119.747 48.354 117.167 47.5695 114.171 46.4528L108.724 44.422L108.719 36.7811C108.717 32.5787 108.58 27.7966 108.416 26.1544L108.117 23.1686L110.792 26.0599C112.263 27.65 114.438 30.8589 115.626 33.1911ZM82.7607 38.5047C85.0159 40.408 85.6134 43.6636 84.1612 46.138C83.0028 48.1124 81.3305 48.9549 78.5722 48.9549C72.7895 48.9549 70.5812 41.0648 75.5156 38.0351C77.9509 36.5406 80.6403 36.7148 82.7607 38.5047ZM26.1446 42.7049C26.4482 43.8129 26.4616 45.3883 26.1774 46.6211C25.9159 47.7552 25.7034 49.5385 25.7061 50.5835L25.7099 52.4836L26.8165 50.9907C27.4253 50.1699 28.1453 49.4978 28.417 49.4978C29.3937 49.4978 28.945 54.1942 27.833 55.6176C26.7221 57.0388 26.4271 59.5382 27.2215 60.7987C27.5494 61.3193 27.8567 61.0653 28.3496 59.8672C28.7228 58.9611 29.384 57.9221 29.8197 57.5578C31.9326 55.7924 32.1272 62.2194 30.05 65.1569C28.973 66.6786 28.9218 67.0488 29.5102 69.0259C30.2932 71.6567 30.8174 71.7978 31.2741 69.4999C31.6263 67.7279 32.4988 66.3268 33.25 66.3268C34.0163 66.3268 34.9574 70.1383 34.7001 72.1979C34.5626 73.2983 34.129 74.9715 33.737 75.9166C33.0861 77.4844 33.1389 77.8041 34.3383 79.5701L35.6525 81.506L36.1917 78.4382C36.4883 76.7504 37.0158 75.2755 37.3641 75.1598C38.3337 74.8379 40.7756 79.4686 40.7756 81.6298C40.7756 82.6786 40.5092 84.3061 40.1834 85.2469C39.6339 86.8337 39.7278 87.0954 41.4777 88.857C43.5512 90.9443 44.324 91.2657 43.7588 89.8059C43.5566 89.2837 43.2627 87.8174 43.1058 86.5487C42.7337 83.545 43.7416 83.4804 46.3101 86.3419C48.3437 88.6084 49.5889 91.6256 49.3031 93.5968C49.1284 94.802 50.9603 96.5641 53.2727 97.4153C54.0854 97.7145 54.1053 97.5749 53.4717 96.0158C52.0696 92.5626 51.9698 91.8417 52.8941 91.8417C54.3949 91.8417 57.7168 93.8416 58.8908 95.4518C59.5116 96.303 60.3075 97.8806 60.6602 98.9576C61.2706 100.824 61.4842 100.959 65.1944 101.836C69.1403 102.769 79.1087 104.302 79.6032 104.052C79.7515 103.978 81.6929 103.748 83.9174 103.543C87.5548 103.207 92.8979 102.225 96.1918 101.288C96.9177 101.081 97.546 100.363 97.7439 99.513C98.5361 96.1168 101.333 93.2 104.814 92.1386C105.805 91.8363 106.028 91.9785 106.028 92.9122C106.028 93.5414 105.525 95.049 104.91 96.2617L103.793 98.4663L106.528 96.968C109.201 95.5033 109.263 95.4127 109.265 92.9768C109.268 89.6691 111.194 86.3592 113.993 84.8511C115.142 84.2317 115.195 84.2974 115.195 86.3587C115.195 87.5438 114.945 89.1768 114.639 89.9873C114.123 91.3537 114.152 91.4052 115.043 90.7017C117.389 88.8499 118.457 87.2137 118.15 85.9423C117.279 82.3382 117.274 81.3486 118.111 79.1407C118.605 77.8389 119.47 76.3541 120.033 75.8411C121.019 74.9432 121.078 74.9872 121.599 76.9958C121.897 78.1445 122.216 79.8128 122.308 80.7031L122.475 82.3225L123.762 79.8687C124.993 77.5202 125.011 77.3411 124.167 75.6978C123.681 74.7538 123.284 73.028 123.284 71.8635C123.284 69.6046 124.214 66.3268 124.855 66.3268C125.379 66.3268 127.059 69.9412 127.059 71.0682C127.059 72.2577 127.782 71.4091 128.643 69.2094C129.263 67.6237 129.198 67.3164 127.875 65.57C126.341 63.5446 125.892 59.7597 126.959 57.8401C127.426 57.0003 127.621 57.1083 128.62 58.7575C129.242 59.7857 129.752 60.8096 129.754 61.0338C129.755 61.258 129.971 61.4409 130.234 61.4409C130.497 61.4409 130.825 60.6657 130.963 59.7184C131.141 58.4997 130.843 57.4449 129.945 56.1138C129.155 54.9423 128.677 53.4418 128.677 52.1362C128.677 49.7779 129.299 49.4723 130.521 51.2296C131.793 53.0563 132.17 51.9869 131.562 48.2823C131.02 44.9882 131.519 40.8119 132.452 40.8119C133.281 40.8119 134.177 44.0973 133.892 46.0875C133.73 47.2167 133.43 49.4842 133.225 51.1264L132.853 54.1122L134.135 52.9716C134.841 52.3441 135.843 51.6801 136.362 51.4956C138.662 50.6785 136.236 56.0796 133.801 57.1962C133.059 57.5366 132.441 57.959 132.428 58.1354C132.415 58.3113 132.209 59.4736 131.969 60.7189L131.534 62.9827L132.937 61.9659C134.3 60.9779 137.305 59.9703 137.305 60.5012C137.305 60.6467 136.961 61.594 136.541 62.607C135.604 64.8648 134.135 66.2578 132.118 66.8007C130.913 67.1253 130.391 67.7725 129.649 69.8609C129.131 71.3179 128.785 72.5877 128.879 72.6827C128.974 72.7777 129.93 72.4856 131.004 72.034C132.078 71.5823 133.465 71.2126 134.087 71.2126H135.217L134.002 73.389C132.573 75.9486 131.193 76.9654 128.445 77.4844C126.82 77.7911 126.144 78.3394 124.894 80.3611C124.044 81.7351 123.411 82.9218 123.487 82.9978C123.563 83.0743 124.457 82.8968 125.474 82.6037C127.657 81.9734 130.835 81.8979 130.834 82.4772C130.833 83.1368 128.525 85.6117 126.957 86.6345C126.132 87.1725 124.185 87.6524 122.445 87.7463C119.615 87.8988 119.196 88.1008 116.892 90.4194L114.4 92.9274L116.281 92.9307C118.595 92.934 122.206 93.9024 122.206 94.5191C122.206 95.3345 119.497 96.7856 117.185 97.2085C115.706 97.4789 114.028 97.3621 112.326 96.8708C109.796 96.1396 109.661 96.1613 107.203 97.6895C105.815 98.5527 104.073 99.5277 103.331 99.8566C102.461 100.242 102.296 100.467 102.865 100.491C104.672 100.566 109.268 102.347 110.13 103.306C110.973 104.244 110.935 104.334 109.469 104.902C106.537 106.037 102.868 105.623 100.01 103.835L97.3906 102.195L93.2156 103.22C89.3571 104.166 85.8966 104.779 83.9174 104.865C83.4725 104.884 84.7641 105.611 86.7869 106.48C88.8103 107.348 90.8185 108.354 91.2494 108.714C92.9276 110.116 91.3777 109.754 87.3467 107.802C81.4373 104.941 77.8452 104.909 71.6452 107.663C69.1958 108.75 67.0749 109.449 66.9314 109.215C66.6742 108.796 68.0353 108.039 72.6633 106.029L75.0194 105.006L72.3231 104.623C70.8401 104.413 68.1707 103.866 66.3911 103.407C64.6115 102.948 62.6258 102.454 61.9793 102.309C61.2345 102.141 60.1285 102.562 58.9642 103.456C57.9471 104.237 56.0602 105.014 54.7422 105.196C52.1963 105.548 47.7861 104.634 47.7861 103.756C47.7861 102.798 51.2413 101.082 53.8842 100.727L56.4771 100.379L52.5851 98.2161C48.7121 96.0631 48.6797 96.056 45.8695 96.7346C42.9413 97.4419 41.2011 97.2313 38.214 95.8095C34.8867 94.226 36.4188 92.802 41.4497 92.802H44.118L41.523 90.1507C39.2128 87.7892 38.6735 87.4987 36.5989 87.4987C33.7807 87.4987 31.0099 86.4032 29.1866 84.5672C26.4293 81.7915 28.2655 80.6651 32.8596 82.3149C35.2232 83.1634 35.234 82.988 33.0311 79.4751C31.9919 77.8183 31.259 77.2694 29.7577 77.024C28.6932 76.8503 27.1293 76.2108 26.2815 75.6028C24.7015 74.4704 23.0939 71.4596 23.7281 70.8212C23.9227 70.6252 25.3011 70.983 26.7917 71.6171L29.501 72.769L29.1418 71.5839C28.0908 68.1161 27.2706 66.8745 25.553 66.152C23.4212 65.2552 20.8225 62.3465 20.8225 60.8563C20.8225 59.5246 21.716 59.5371 23.9362 60.9002C26.206 62.2933 26.2999 62.2737 25.9056 60.4909C25.2521 57.5345 25.0967 57.2538 23.7766 56.6485C22.4273 56.0296 20.2891 53.0634 20.2853 51.805C20.2821 50.7974 21.5737 50.982 23.1268 52.2122C23.8807 52.8093 24.6033 53.2979 24.7316 53.2979C25.0827 53.2979 24.3272 48.747 23.8467 47.9636C23.2195 46.942 23.3446 42.6973 24.0403 41.3884C24.8174 39.927 25.4996 40.3537 26.1446 42.7049ZM69.4137 48.658C70.7818 50.9923 74.9277 53.8158 77.1339 53.9162C82.7149 54.1692 85.7299 52.8864 88.2618 49.1819C89.6256 47.1863 90.1978 46.7498 91.1216 46.9995C91.7563 47.1711 92.7011 47.3149 93.2199 47.3187C95.7275 47.3388 93.1466 54.958 89.5577 58.1305C83.3237 63.6401 74.8129 63.6483 68.5918 58.1495C65.7989 55.6811 64.1288 52.8717 63.6855 49.8974C63.342 47.5896 63.4045 47.3991 64.5839 47.1738C67.6966 46.5788 68.3044 46.765 69.4137 48.658ZM51.1415 58.7195C57.122 73.9742 75.6676 81.5869 90.9258 75.0507C99.7775 71.2588 106.118 63.772 108.2 54.6551C108.541 53.1622 108.911 51.6389 109.022 51.2703C109.167 50.7866 110.542 51.0667 113.962 52.2768C116.568 53.1991 119.002 54.2012 119.371 54.5036C119.815 54.8673 119.932 55.8119 119.717 57.2972C116.069 82.5461 89.6941 98.0711 65.3637 89.2913C56.2489 86.002 47.6373 78.7987 43.0745 70.648C40.9481 66.8485 38.0792 58.7076 38.0792 56.472C38.0792 55.2202 39.7671 54.1236 44.6653 52.1942L48.595 50.6465L49.2842 53.1937C49.6639 54.5948 50.4992 57.0812 51.1415 58.7195ZM81.8763 118.826C84.6347 122.962 88.099 128.527 88.9294 130.156L89.7815 131.827L85.4452 138.842C80.3501 147.086 80.4855 146.919 79.4026 146.308C78.4071 145.748 69.8936 132.334 69.9017 131.339C69.9098 130.386 77.7784 117.775 78.8693 116.967C79.9748 116.148 80.1711 116.269 81.8763 118.826ZM10.5622 125.269C2.15875 129.41 0.330078 130.565 0.330078 131.732C0.330078 132.081 2.45374 133.59 5.04872 135.083L9.76736 137.799L9.57753 145.222C9.41306 151.661 9.49934 152.643 10.2279 152.643C11.3739 152.643 22.3556 146.561 22.67 145.752C22.8091 145.396 22.0579 143.319 21.001 141.138C18.269 135.498 16.5083 131.43 16.5083 130.757C16.5083 130.438 17.4989 128.498 18.7101 126.446C20.8241 122.864 21.1153 121.157 19.6118 121.157C19.2241 121.157 15.1515 123.007 10.5622 125.269ZM138.578 122.518C138.406 122.969 139.26 125.02 140.482 127.091C141.701 129.157 142.698 131.023 142.698 131.239C142.698 131.454 141.347 134.795 139.695 138.663C138.044 142.53 136.81 146.004 136.955 146.384C137.311 147.318 147.548 152.915 148.9 152.915C150.078 152.915 150.066 153.085 149.633 142.949L149.439 138.411L151.057 137.513C156.701 134.382 158.876 132.934 158.876 132.308C158.876 131.916 158.209 131.153 157.393 130.611C154.899 128.955 140.449 121.7 139.645 121.7C139.23 121.7 138.749 122.068 138.578 122.518ZM61.0393 127.535C62.4414 129.849 63.5917 132.023 63.5965 132.366C63.6106 133.403 58.5425 141.243 57.8592 141.242C57.1085 141.241 52.1003 133.506 52.1003 132.348C52.1003 131.191 57.1085 123.354 57.857 123.34C58.2054 123.334 59.6377 125.222 61.0393 127.535ZM104.545 127.977C105.954 130.206 107.106 132.264 107.106 132.55C107.106 133.592 102.076 141.243 101.392 141.243C100.798 141.243 96.1368 134.664 95.4455 132.85C95.0923 131.923 100.577 123.337 101.323 123.648C101.686 123.8 103.136 125.748 104.545 127.977ZM44.2808 132.146C45.1707 133.711 45.9828 135.186 46.0858 135.425C46.3597 136.061 42.8049 141.786 42.1356 141.786C41.8228 141.786 40.7713 140.447 39.7989 138.81C38.2658 136.229 38.117 135.67 38.681 134.603C39.8184 132.448 41.9852 129.3 42.3303 129.3C42.5131 129.301 43.391 130.581 44.2808 132.146ZM119.342 133.111L121.08 136.024L119.411 139.176C118.492 140.91 117.472 142.329 117.143 142.328C116.67 142.328 114.071 138.379 113.13 136.232C112.814 135.511 116.363 129.782 116.994 129.994C117.33 130.106 118.387 131.509 119.342 133.111ZM77.4462 148.029C78.0011 148.702 77.9428 148.854 77.1075 148.904C76.5526 148.938 75.3699 149.024 74.4801 149.095C73.5903 149.166 70.3256 149.392 67.2248 149.597C64.1239 149.802 61.5079 150.049 61.4109 150.147C60.7718 150.79 78.1051 159.7 79.9958 159.7C81.7641 159.7 97.3939 151.798 98.1898 150.501C98.3338 150.268 96.3337 149.916 93.7457 149.721C82.5903 148.879 81.8261 148.758 82.1583 147.888C82.4242 147.19 83.3787 147.121 88.4527 147.432C91.7418 147.632 95.1613 147.9 96.0511 148.025C96.9409 148.151 99.6103 148.523 101.983 148.853C107.146 149.57 108.297 149.875 108.08 150.47C107.87 151.042 102.59 154.939 97.4974 158.282C91.9526 161.921 81.6266 167.301 80.1851 167.301C76.5245 167.301 49.3009 150.489 51.6538 149.681C53.2792 149.124 59.1184 148.238 63.1554 147.936C65.5282 147.759 67.571 147.524 67.6945 147.414C67.818 147.305 69.9114 147.214 72.3468 147.214C75.625 147.214 76.9489 147.426 77.4462 148.029Z" fill="#6523B6"/>
</svg>
