<svg width="61" height="61" viewBox="0 0 61 61" fill="none" xmlns="http://www.w3.org/2000/svg">
<path d="M3 30.914H42.0834M42.0834 30.914L32.3126 22.5391M42.0834 30.914L32.3126 39.289" stroke="#DBFF00" stroke-width="4.1875" stroke-linecap="round" stroke-linejoin="round"/>
<path d="M22.5439 16.9583C22.5778 10.8864 22.847 7.59804 24.9921 5.45298C27.4451 3 31.3931 3 39.2891 3H42.0807C49.9767 3 53.9249 3 56.3777 5.45298C58.8307 7.90596 58.8307 11.854 58.8307 19.75V42.0833C58.8307 49.9793 58.8307 53.9273 56.3777 56.3803C54.2326 58.5254 50.9443 58.7948 44.8718 58.8286M22.5439 44.875C22.5778 50.9469 22.847 54.2352 24.9921 56.3803C26.7824 58.1706 29.3689 58.6544 33.7052 58.785" stroke="#DBFF00" stroke-width="4.1875" stroke-linecap="round"/>
</svg>
